<?xml version="1.0" standalone="no"?><!DOCTYPE svg PUBLIC "-//W3C//DTD SVG 1.1//EN" "http://www.w3.org/Graphics/SVG/1.1/DTD/svg11.dtd"><svg t="1592180669493" class="icon" viewBox="0 0 1024 1024" version="1.1" xmlns="http://www.w3.org/2000/svg" p-id="4963" xmlns:xlink="http://www.w3.org/1999/xlink" width="200" height="200"><defs><style type="text/css"></style></defs><path d="M804.571429 146.285714a73.142857 73.142857 0 0 1 73.142857 73.142857v468.553143a73.142857 73.142857 0 0 1-38.107429 64.219429l-329.142857 179.565714a73.142857 73.142857 0 0 1-70.070857 0l-329.142857-179.565714A73.142857 73.142857 0 0 1 73.142857 687.981714V219.428571a73.142857 73.142857 0 0 1 73.142857-73.142857h658.285715z m0 73.142857H146.285714v468.553143l329.142857 179.565715L804.571429 687.981714V219.428571zM512 664.137143v73.142857H438.857143v-73.142857h73.142857z m-33.499429-396.653714c106.349714 0 159.524571 69.193143 159.524572 157.476571 0 25.673143-9.801143 51.053714-22.089143 70.217143-10.24 15.872-21.065143 26.112-41.545143 40.228571l-20.48 13.385143c-29.988571 19.163429-39.936 28.086857-41.691428 37.083429L512 588.8a36.571429 36.571429 0 0 1-73.142857 0c0-42.276571 18.139429-63.707429 64.585143-94.500571l27.428571-17.92c13.385143-9.142857 19.602286-14.774857 23.478857-20.772572a66.998857 66.998857 0 0 0 10.532572-30.72c0-51.492571-25.234286-84.333714-86.308572-84.333714-48.786286 0-75.044571 21.065143-87.04 70.217143a36.571429 36.571429 0 0 1-71.021714-17.188572c19.748571-81.773714 75.190857-126.171429 157.988571-126.171428z" p-id="4964" fill="#13227a"></path></svg>